<mxfile host="drawio-plugin" modified="2021-04-22T09:54:25.690Z" agent="5.0 (Windows NT 6.2; Win64; x64) AppleWebKit/537.36 (KHTML, like Gecko) Chrome/87.0.4280.141 Safari/537.36" version="13.7.9" etag="T_7a1Bhd1cLzPSwto25J" type="embed"><diagram id="5R2Qpy_n48ueGPMOlEe1" name="Page-1"><mxGraphModel dx="893" dy="826" grid="1" gridSize="10" guides="1" tooltips="1" connect="1" arrows="1" fold="1" page="1" pageScale="1" pageWidth="850" pageHeight="1100" math="0" shadow="0"><root><mxCell id="0"/><mxCell id="1" parent="0"/><mxCell id="5" style="edgeStyle=orthogonalEdgeStyle;rounded=0;orthogonalLoop=1;jettySize=auto;html=1;exitX=1;exitY=0.5;exitDx=0;exitDy=0;entryX=0;entryY=0.5;entryDx=0;entryDy=0;" edge="1" parent="1" source="2" target="4"><mxGeometry relative="1" as="geometry"/></mxCell><mxCell id="6" value="&lt;font style=&quot;background-color: rgb(0 , 255 , 255) ; font-size: 18px&quot; color=&quot;#ff0000&quot;&gt;url&lt;/font&gt;" style="edgeLabel;html=1;align=center;verticalAlign=middle;resizable=0;points=[];" vertex="1" connectable="0" parent="5"><mxGeometry x="-0.26" relative="1" as="geometry"><mxPoint as="offset"/></mxGeometry></mxCell><mxCell id="20" style="edgeStyle=orthogonalEdgeStyle;rounded=0;orthogonalLoop=1;jettySize=auto;html=1;exitX=0.5;exitY=1;exitDx=0;exitDy=0;entryX=0;entryY=0.25;entryDx=0;entryDy=0;strokeColor=#FFFFFF;" edge="1" parent="1" source="2" target="12"><mxGeometry relative="1" as="geometry"/></mxCell><mxCell id="23" value="Handler" style="edgeLabel;html=1;align=center;verticalAlign=middle;resizable=0;points=[];rotation=-90;" vertex="1" connectable="0" parent="20"><mxGeometry x="0.0207" relative="1" as="geometry"><mxPoint as="offset"/></mxGeometry></mxCell><mxCell id="25" style="edgeStyle=orthogonalEdgeStyle;rounded=0;orthogonalLoop=1;jettySize=auto;html=1;exitX=0;exitY=0.75;exitDx=0;exitDy=0;entryX=0;entryY=0.25;entryDx=0;entryDy=0;strokeColor=#FFFFFF;" edge="1" parent="1" source="2" target="24"><mxGeometry relative="1" as="geometry"/></mxCell><mxCell id="26" value="逻辑视图名" style="edgeLabel;html=1;align=center;verticalAlign=middle;resizable=0;points=[];rotation=-90;" vertex="1" connectable="0" parent="25"><mxGeometry x="-0.3242" relative="1" as="geometry"><mxPoint as="offset"/></mxGeometry></mxCell><mxCell id="30" style="edgeStyle=orthogonalEdgeStyle;rounded=0;orthogonalLoop=1;jettySize=auto;html=1;exitX=0;exitY=0.25;exitDx=0;exitDy=0;entryX=0;entryY=0.5;entryDx=0;entryDy=0;strokeColor=#FFFFFF;" edge="1" parent="1" source="2" target="29"><mxGeometry relative="1" as="geometry"><Array as="points"><mxPoint x="100" y="287"/><mxPoint x="100" y="690"/></Array></mxGeometry></mxCell><mxCell id="31" value="调用具体的视图" style="edgeLabel;html=1;align=center;verticalAlign=middle;resizable=0;points=[];" vertex="1" connectable="0" parent="30"><mxGeometry x="0.6261" y="4" relative="1" as="geometry"><mxPoint x="30.17" y="-6" as="offset"/></mxGeometry></mxCell><mxCell id="2" value="&lt;font style=&quot;font-size: 14px&quot;&gt;DispatcherServlet&lt;/font&gt;" style="shape=hexagon;perimeter=hexagonPerimeter2;whiteSpace=wrap;html=1;fixedSize=1;" vertex="1" parent="1"><mxGeometry x="170" y="270" width="140" height="60" as="geometry"/></mxCell><mxCell id="8" style="edgeStyle=orthogonalEdgeStyle;rounded=0;orthogonalLoop=1;jettySize=auto;html=1;exitX=1;exitY=0.5;exitDx=0;exitDy=0;entryX=0;entryY=0.5;entryDx=0;entryDy=0;strokeColor=#FFFFFF;" edge="1" parent="1" source="4" target="7"><mxGeometry relative="1" as="geometry"/></mxCell><mxCell id="9" value="&lt;font style=&quot;font-size: 18px&quot;&gt;查找Handler&lt;br&gt;&lt;span style=&quot;color: rgb(255 , 0 , 0) ; background-color: rgb(0 , 255 , 255)&quot;&gt;url&lt;/span&gt;&lt;br&gt;&lt;/font&gt;" style="edgeLabel;html=1;align=center;verticalAlign=middle;resizable=0;points=[];" vertex="1" connectable="0" parent="8"><mxGeometry x="-0.2333" y="-1" relative="1" as="geometry"><mxPoint x="12.5" y="-1" as="offset"/></mxGeometry></mxCell><mxCell id="4" value="HandlerMappler&lt;br&gt;处理器映射器" style="rounded=0;whiteSpace=wrap;html=1;" vertex="1" parent="1"><mxGeometry x="410" y="270" width="120" height="60" as="geometry"/></mxCell><mxCell id="10" style="edgeStyle=orthogonalEdgeStyle;rounded=0;orthogonalLoop=1;jettySize=auto;html=1;exitX=1;exitY=0.5;exitDx=0;exitDy=0;entryX=0.625;entryY=1;entryDx=0;entryDy=0;strokeColor=#FFFFFF;" edge="1" parent="1" source="7" target="2"><mxGeometry relative="1" as="geometry"/></mxCell><mxCell id="11" value="&lt;font style=&quot;font-size: 14px&quot;&gt;解析后的信息，如解析控制器映射&lt;/font&gt;" style="edgeLabel;html=1;align=center;verticalAlign=middle;resizable=0;points=[];" vertex="1" connectable="0" parent="10"><mxGeometry x="0.1969" relative="1" as="geometry"><mxPoint x="20.83" as="offset"/></mxGeometry></mxCell><mxCell id="7" value="(一个具体的Handler)&lt;br&gt;HandlerExecution&lt;br&gt;解析器&lt;br&gt;根据&lt;font style=&quot;font-size: 12px&quot;&gt;&lt;span style=&quot;color: rgb(255 , 0 , 0) ; background-color: rgb(0 , 255 , 255)&quot;&gt;url&lt;/span&gt;&lt;font color=&quot;#ffffff&quot;&gt;查找控制器&lt;/font&gt;&lt;/font&gt;" style="rounded=0;whiteSpace=wrap;html=1;" vertex="1" parent="1"><mxGeometry x="680" y="270" width="120" height="60" as="geometry"/></mxCell><mxCell id="14" style="edgeStyle=orthogonalEdgeStyle;rounded=0;orthogonalLoop=1;jettySize=auto;html=1;exitX=1;exitY=0.25;exitDx=0;exitDy=0;strokeColor=#FFFFFF;entryX=0;entryY=0.25;entryDx=0;entryDy=0;" edge="1" parent="1" source="12" target="15"><mxGeometry relative="1" as="geometry"><mxPoint x="480" y="454.8333333333335" as="targetPoint"/></mxGeometry></mxCell><mxCell id="17" value="它按照特定的规则去执行 Handler，&lt;br&gt;Handler 让具体的 Controller 执行" style="edgeLabel;html=1;align=center;verticalAlign=middle;resizable=0;points=[];" vertex="1" connectable="0" parent="14"><mxGeometry x="-0.1914" y="-1" relative="1" as="geometry"><mxPoint as="offset"/></mxGeometry></mxCell><mxCell id="21" style="edgeStyle=orthogonalEdgeStyle;rounded=0;orthogonalLoop=1;jettySize=auto;html=1;exitX=0;exitY=0.75;exitDx=0;exitDy=0;entryX=0.375;entryY=1;entryDx=0;entryDy=0;strokeColor=#FFFFFF;" edge="1" parent="1" source="12" target="2"><mxGeometry relative="1" as="geometry"/></mxCell><mxCell id="22" value="视图逻辑名或模型" style="edgeLabel;html=1;align=center;verticalAlign=middle;resizable=0;points=[];rotation=90;" vertex="1" connectable="0" parent="21"><mxGeometry x="0.0061" relative="1" as="geometry"><mxPoint y="-15.829999999999998" as="offset"/></mxGeometry></mxCell><mxCell id="12" value="HandlerAdapter&lt;br&gt;适配器处理器" style="rounded=0;whiteSpace=wrap;html=1;" vertex="1" parent="1"><mxGeometry x="260" y="440" width="120" height="60" as="geometry"/></mxCell><mxCell id="18" style="edgeStyle=orthogonalEdgeStyle;rounded=0;orthogonalLoop=1;jettySize=auto;html=1;exitX=0;exitY=0.75;exitDx=0;exitDy=0;entryX=1;entryY=0.75;entryDx=0;entryDy=0;strokeColor=#FFFFFF;" edge="1" parent="1" source="15" target="12"><mxGeometry relative="1" as="geometry"/></mxCell><mxCell id="19" value="具体的执行信息，如 ModeAndView" style="edgeLabel;html=1;align=center;verticalAlign=middle;resizable=0;points=[];" vertex="1" connectable="0" parent="18"><mxGeometry x="-0.1522" y="-3" relative="1" as="geometry"><mxPoint x="-22.5" y="8" as="offset"/></mxGeometry></mxCell><mxCell id="15" value="Controller" style="rounded=0;whiteSpace=wrap;html=1;" vertex="1" parent="1"><mxGeometry x="680" y="440" width="120" height="60" as="geometry"/></mxCell><mxCell id="27" style="edgeStyle=orthogonalEdgeStyle;rounded=0;orthogonalLoop=1;jettySize=auto;html=1;exitX=0;exitY=0.75;exitDx=0;exitDy=0;entryX=0;entryY=0.5;entryDx=0;entryDy=0;strokeColor=#FFFFFF;" edge="1" parent="1" source="24" target="2"><mxGeometry relative="1" as="geometry"/></mxCell><mxCell id="28" value="解析后的逻辑视图名" style="edgeLabel;html=1;align=center;verticalAlign=middle;resizable=0;points=[];rotation=90;" vertex="1" connectable="0" parent="27"><mxGeometry x="0.0518" y="1" relative="1" as="geometry"><mxPoint x="1" as="offset"/></mxGeometry></mxCell><mxCell id="24" value="ViewResolver&lt;br&gt;视图解析器" style="rounded=0;whiteSpace=wrap;html=1;" vertex="1" parent="1"><mxGeometry x="260" y="550" width="120" height="60" as="geometry"/></mxCell><mxCell id="33" style="edgeStyle=orthogonalEdgeStyle;rounded=0;orthogonalLoop=1;jettySize=auto;html=1;exitX=1;exitY=0.5;exitDx=0;exitDy=0;strokeColor=#FFFFFF;" edge="1" parent="1" source="29" target="32"><mxGeometry relative="1" as="geometry"/></mxCell><mxCell id="34" value="呈现给用户" style="edgeLabel;html=1;align=center;verticalAlign=middle;resizable=0;points=[];" vertex="1" connectable="0" parent="33"><mxGeometry x="-0.2463" y="-1" relative="1" as="geometry"><mxPoint x="22.5" y="-1" as="offset"/></mxGeometry></mxCell><mxCell id="29" value="View" style="rounded=0;whiteSpace=wrap;html=1;" vertex="1" parent="1"><mxGeometry x="260" y="660" width="120" height="60" as="geometry"/></mxCell><mxCell id="32" value="" style="shape=actor;whiteSpace=wrap;html=1;" vertex="1" parent="1"><mxGeometry x="560" y="660" width="40" height="60" as="geometry"/></mxCell></root></mxGraphModel></diagram></mxfile>